<?xml version="1.0" encoding="UTF-8"?>
<svg xmlns="http://www.w3.org/2000/svg" viewBox="0 0 775.04 195.11">
  <defs>
    <style>
      .cls-1 {
        fill: #fff;
      }
    </style>
  </defs>
  <g id="Layer_1">
    <path class="cls-1" d="M646.87,12.11c-5.83,2.47-12.45,6.06-19.85,10.76-6.95,4.26-12.78,7.4-17.49,9.42-4.3,1.84-9.16,2.85-14.59,3-.85.03-1.56-.68-1.56-1.53V3.2c0-.84.68-1.51,1.51-1.51h176.77c1.86,0,3.36,1.51,3.36,3.36v26.78c0,1.93-1.62,3.51-3.55,3.37-4.63-.32-8.83-1.29-12.59-2.91-4.71-2.02-10.54-5.16-17.49-9.42-7.4-4.71-14.02-8.29-19.85-10.76-4.32-1.82-9.18-2.97-14.6-3.45-3.26-.29-5.92,2.09-5.92,5.36v176.04c0,1.86-1.51,3.36-3.36,3.36h-26.91c-1.86,0-3.36-1.51-3.36-3.36V14.03c0-3.27-2.66-5.65-5.92-5.36-5.42.47-10.29,1.63-14.6,3.45Z"/>
  </g>
  <g id="Layer_24">
    <path class="cls-1" d="M596.62,3.2v30.59c0,.85-.7,1.54-1.54,1.52-6.58-.13-12.63-1.07-18.14-2.85-5.95-1.9-13.4-4.88-22.37-8.91-10.09-4.93-19.51-8.69-28.26-11.27-7.33-2.16-15.69-3.42-25.07-3.77-3.03-.11-5.54,2.35-5.54,5.38v73.59c0,1.86,1.51,3.36,3.36,3.36h70.68c.91,0,1.64.74,1.64,1.64v10.12c0,.91-.74,1.64-1.64,1.64h-70.68c-1.86,0-3.36,1.51-3.36,3.36v73.59c0,3.03,2.51,5.49,5.54,5.38,9.38-.35,17.74-1.6,25.07-3.77,8.75-2.58,18.17-6.33,28.26-11.27,8.97-4.04,16.42-7.01,22.37-8.91,4.95-1.59,10.34-2.52,16.16-2.78,1.92-.09,3.52,1.45,3.52,3.37v26.83c0,1.86-1.51,3.36-3.36,3.36h-127.83c-1.86,0-3.36-1.51-3.36-3.36V5.05c0-1.86,1.51-3.36,3.36-3.36h129.68c.84,0,1.51.68,1.51,1.51Z"/>
  </g>
  <g id="Layer_23">
    <path class="cls-1" d="M319,194.57c-1.84-.03-3.32-1.52-3.32-3.36v-27.9c0-1.95,1.66-3.53,3.61-3.36,4.07.35,7.96,1.31,11.7,2.87,4.82,2.02,10.93,5.16,18.33,9.42,8.75,4.94,16.15,8.64,22.2,11.1,6.06,2.47,12.89,3.7,20.52,3.7,7.17,0,13-2.02,17.49-6.06,4.48-4.04,6.73-9.76,6.73-17.16,0-8.52-3.82-16.76-11.44-24.72-7.63-7.96-19.51-18.22-35.66-30.78-12.11-9.19-21.86-17.1-29.27-23.72-7.4-6.61-13.68-13.9-18.84-21.87-5.16-7.96-7.74-16.09-7.74-24.39,0-12.78,5.55-22.37,16.65-28.76,11.1-6.39,26.96-9.59,47.6-9.59,3.58,0,11.66.23,24.22.67,21.57.55,35.72.88,42.43.98,1.84.03,3.32,1.52,3.32,3.36v26.79c0,1.95-1.66,3.53-3.61,3.36-4.07-.35-7.97-1.31-11.7-2.87-4.83-2.02-10.93-5.16-18.33-9.42-8.75-4.93-16.15-8.63-22.2-11.1-6.06-2.47-12.9-3.7-20.52-3.7-7.18,0-13.01,2.02-17.49,6.06-4.49,4.04-6.73,9.75-6.73,17.16,0,10.09,4.32,19.68,12.95,28.76,8.63,9.08,21.25,19.9,37.84,32.46,11.44,8.75,20.63,16.2,27.58,22.37,6.95,6.17,12.78,12.78,17.49,19.85,4.71,7.06,7.06,14.41,7.06,22.03,0,12.78-5.55,22.37-16.65,28.76-11.1,6.39-26.97,9.59-47.6,9.59-3.59,0-59.94-.44-66.65-.54Z"/>
  </g>
  <g id="Layer_22">
    <path class="cls-1" d="M288.25,79.91c-3.03-3.03-4.54-6.45-4.54-10.26s1.51-7.24,4.54-10.27c3.03-3.03,6.45-4.54,10.26-4.54s7.24,1.51,10.27,4.54,4.54,6.45,4.54,10.27-1.51,7.24-4.54,10.26c-3.03,3.03-6.45,4.54-10.27,4.54s-7.24-1.51-10.26-4.54Z"/>
  </g>
  <g id="Layer_21">
    <path class="cls-1" d="M288.25,142.17c-3.03-3.03-4.54-6.45-4.54-10.26s1.51-7.24,4.54-10.26c3.03-3.03,6.45-4.54,10.26-4.54s7.24,1.52,10.27,4.54c3.03,3.03,4.54,6.45,4.54,10.26s-1.51,7.24-4.54,10.26c-3.03,3.03-6.45,4.54-10.27,4.54s-7.24-1.52-10.26-4.54Z"/>
  </g>
  <g id="Layer_20">
    <path class="cls-1" d="M291.5,5.05v26.83c0,1.92-1.61,3.46-3.52,3.37-5.82-.26-11.2-1.19-16.16-2.78-5.95-1.9-13.4-4.88-22.37-8.91-10.09-4.93-19.51-8.69-28.26-11.27-7.33-2.16-15.69-3.42-25.07-3.77-3.03-.11-5.54,2.35-5.54,5.38v73.59c0,1.86,1.51,3.36,3.36,3.36h70.68c.91,0,1.64.74,1.64,1.64v10.12c0,.91-.74,1.64-1.64,1.64h-70.68c-1.86,0-3.36,1.51-3.36,3.36v73.59c0,3.03,2.51,5.49,5.54,5.38,9.38-.35,17.74-1.6,25.07-3.77,8.75-2.58,18.17-6.33,28.26-11.27,8.97-4.04,16.42-7.01,22.37-8.91,4.95-1.59,10.34-2.52,16.16-2.78,1.92-.09,3.52,1.45,3.52,3.37v26.83c0,1.86-1.51,3.36-3.36,3.36h-127.83c-1.86,0-3.36-1.51-3.36-3.36V5.05c0-1.86,1.51-3.36,3.36-3.36h127.83c1.86,0,3.36,1.51,3.36,3.36Z"/>
  </g>
  <g id="Layer_19">
    <path class="cls-1" d="M33.64,1.68c27.36,0,49.28,1.91,65.77,5.72,16.48,3.82,28.7,10.15,36.67,19.01,7.96,8.86,11.94,20.8,11.94,35.83,0,18.62-5.61,33.64-16.82,45.08-11.22,11.44-27.03,17.16-47.43,17.16h-2.02c3.58,2.69,7.51,6.39,11.77,11.1,8.07,8.07,15.58,14.13,22.54,18.17,6.25,3.63,14.15,5.63,23.68,5.99,1.8.07,3.23,1.55,3.23,3.35v26.89c0,1.92-1.61,3.47-3.53,3.37-8.44-.45-16.01-2.55-22.71-6.3-7.63-4.26-14.08-9.42-19.34-15.47-5.27-6.06-11.16-13.79-17.66-23.21-6.73-9.87-12.56-17.16-17.49-21.87-4.94-4.71-10.32-7.06-16.15-7.06-3.91,0-7.44.78-10.58,2.32-1.15.57-1.87,1.75-1.87,3.03v65.29c0,1.86-1.51,3.36-3.36,3.36H3.36c-1.86,0-3.36-1.51-3.36-3.36V5.05C0,3.19,1.51,1.68,3.36,1.68h30.28ZM48.1,111.35c3.58,0,7.4.34,11.44,1.01,6.28.9,11.66,1.35,16.15,1.35,11.66,0,20.74-4.82,27.25-14.47,6.5-9.64,9.75-21.98,9.75-37,0-20.18-5.83-34.2-17.49-42.05-11.66-7.85-30.39-11.77-56.18-11.77h0c-2.97,0-5.38,2.41-5.38,5.38v96.32c0,2.42,2.47,4.04,4.69,3.08,2.86-1.23,6.12-1.85,9.78-1.85Z"/>
  </g>
</svg>